<svg width="348" height="436" viewBox="0 0 348 436" fill="none" xmlns="http://www.w3.org/2000/svg">
<path fill-rule="evenodd" clip-rule="evenodd" d="M238.414 70.8207C231.096 70.8207 145.582 59.267 134.678 174.806C123.774 290.343 246.951 362.298 314.638 289.124C382.325 215.95 342.079 78.7469 238.416 70.8207H238.414Z" fill="#E4ECE0"/>
<path fill-rule="evenodd" clip-rule="evenodd" d="M56.3597 434.618C56.2552 435.031 55.8359 435.28 55.4235 435.175C55.011 435.071 54.7622 434.651 54.8666 434.239C54.8962 434.121 65.1093 393.133 90.6673 365.389C108.765 345.742 107.747 333.364 106.776 321.554C106.392 316.878 106.014 312.289 106.788 307.335C107.458 303.047 109.35 298.66 111.965 294.551C115.628 288.795 120.725 283.566 125.864 279.925C131.081 276.229 136.384 274.155 140.36 274.776C140.837 274.851 141.294 274.962 141.731 275.115C140.633 271.252 139.302 267.29 137.694 263.282C133.239 252.181 131.287 246.058 131.2 241.803C131.109 237.371 132.948 235.028 136.062 231.491C137.431 229.933 140.282 227.396 143.934 224.14C156.429 213.01 178.449 193.395 181.564 177.2C183.438 167.459 183.196 157.072 181.552 146.904C179.646 135.121 175.856 123.631 171.288 113.769C170.408 111.869 169.546 110.009 168.702 108.181C167.489 107.995 166.249 107.736 164.987 107.393C157.461 105.352 160.205 99.0768 161.957 96.1794C158.928 96.7606 152.294 98.5564 145.892 103.779C141.362 107.471 137.602 109.532 134.558 109.977C131.299 110.454 128.863 109.166 127.195 106.137C125.438 102.94 123.698 98.7601 123.468 94.6985C123.292 91.594 123.992 88.5661 126.21 86.0846C126.854 85.3659 127.69 84.6211 128.69 83.9128C129.548 83.3055 130.53 82.7243 131.616 82.2092C131.351 81.9812 131.092 81.7515 130.838 81.5201C126.407 77.4811 123.553 73.0141 122.382 69.579C122.074 68.6775 121.991 67.6978 122.107 66.6868C122.372 64.3567 123.699 61.816 125.756 59.599C127.784 57.4134 130.533 55.5235 133.681 54.4516C135.996 53.6633 138.526 53.3135 141.141 53.6128C143.139 53.8408 144.912 54.1749 146.494 54.6413C146.327 52.687 146.388 50.8633 146.654 49.1684C147.496 43.779 150.383 39.7122 154.568 36.9471C156.288 35.8108 158.426 34.9546 160.744 34.4099C164.36 33.559 168.438 33.4598 172.043 34.2254C175.726 35.0068 178.938 36.6948 180.734 39.4129C181.305 40.2778 181.731 41.2419 181.982 42.3086C182.194 43.21 182.335 44.087 182.41 44.9484C183.99 44.7501 185.566 44.8075 187.099 45.1294C188.33 45.387 189.546 45.7298 190.717 46.1579C193.978 47.3482 196.9 49.2015 198.816 51.7282C200.767 54.3002 201.673 57.5439 200.852 61.4593C200.692 62.2197 200.467 63.0063 200.172 63.8172C198.597 68.1364 195.163 72.1823 191.093 75.7235C190.233 76.4718 189.344 77.1975 188.438 77.8988C189.856 79.1639 191.027 80.7492 191.887 82.418C193.037 84.6507 193.643 87.0591 193.556 89.0794C193.42 92.217 192.511 95.4259 191.184 98.2171C189.758 101.212 187.832 103.753 185.836 105.23C183.751 106.774 180.443 108.002 176.42 108.409C174.584 108.596 172.595 108.611 170.502 108.409L172.685 113.129C177.306 123.102 181.139 134.73 183.069 146.665C184.74 157 184.983 167.567 183.076 177.491C179.864 194.2 157.595 214.035 144.959 225.292C141.348 228.51 138.531 231.017 137.219 232.51C134.351 235.77 132.656 237.915 132.734 241.775C132.818 245.812 134.739 251.79 139.121 262.713C140.945 267.257 142.417 271.744 143.598 276.097C148.732 279.68 152.472 288.017 155.461 294.685C157.609 299.474 159.349 303.351 160.563 303.569C161.472 303.731 162.759 303.632 164.578 303.491C169.875 303.08 179.5 302.333 198.257 306.569C223.412 312.249 246.198 309.552 246.264 309.545C246.687 309.496 247.068 309.8 247.116 310.222C247.153 310.544 246.986 310.841 246.718 310.986C245.909 311.481 229.398 321.411 205.159 321.411C195.082 321.411 187.211 320.052 180.762 318.938C171.61 317.358 165.398 316.286 159.944 320.435C154.922 324.254 151.386 326.003 149.108 325.41C146.654 324.771 145.763 321.761 146.205 316.095C146.677 310.041 146.691 300.553 144.888 289.367C144.256 285.447 143.402 281.317 142.264 277.052C141.63 276.666 140.912 276.417 140.123 276.293C136.556 275.736 131.654 277.701 126.746 281.178C121.761 284.711 116.815 289.785 113.257 295.376C110.749 299.316 108.939 303.503 108.304 307.57C107.561 312.327 107.932 316.838 108.309 321.434C109.308 333.57 110.354 346.287 91.7984 366.431C66.5101 393.883 56.3892 434.502 56.3597 434.62V434.618ZM154.057 295.306C151.464 289.522 148.29 282.448 144.253 278.613C145.156 282.238 145.861 285.756 146.404 289.124C148.231 300.461 148.217 310.074 147.738 316.208C147.364 321.011 147.9 323.506 149.492 323.92C151.259 324.38 154.384 322.732 159.015 319.21C165.004 314.654 171.481 315.771 181.019 317.417C187.404 318.519 195.198 319.866 205.157 319.866C223.177 319.866 236.809 314.306 242.721 311.388C235.203 311.896 217.253 312.428 197.92 308.062C179.396 303.879 169.912 304.615 164.691 305.02C162.759 305.17 161.39 305.276 160.297 305.081C158.279 304.721 156.389 300.508 154.057 295.306ZM167.917 106.485C166.369 103.13 164.874 99.8859 163.422 96.7275C161.978 99.0367 159.471 104.301 165.387 105.905C166.242 106.137 167.086 106.33 167.916 106.485H167.917ZM160.891 91.1972L159.679 88.5469C156.116 80.73 152.879 73.5466 149.799 66.5824C148.149 62.8532 147.14 59.4302 146.685 56.3136C145.041 55.7689 143.151 55.3913 140.971 55.1424C138.59 54.871 136.284 55.1894 134.172 55.9099C131.278 56.8965 128.746 58.6367 126.88 60.6484C125.043 62.6287 123.863 64.8544 123.635 66.8556C123.545 67.6491 123.605 68.4043 123.839 69.0865C124.938 72.3111 127.644 76.531 131.873 80.3837C132.299 80.7735 132.741 81.1581 133.199 81.5375C135.411 80.7022 137.962 80.1627 140.732 80.1819C145.657 80.2167 151.267 82.0073 156.878 87.026C158.218 88.225 159.559 89.6102 160.891 91.2007V91.1972ZM161.077 87.9083L161.712 89.3004C160.819 84.6629 159.448 77.9666 157.847 71.5575C156.453 65.982 154.812 62.1501 152.24 59.5955C151.142 58.5045 149.863 57.6378 148.347 56.9557C148.835 59.7017 149.767 62.7035 151.21 65.9629C154.382 73.1359 157.607 80.2967 161.078 87.91L161.077 87.9083ZM164.439 95.2553C166.118 98.9132 167.883 102.742 169.745 106.772C172.068 107.068 174.266 107.078 176.267 106.876C180.003 106.499 183.038 105.385 184.919 103.993C186.711 102.665 188.467 100.331 189.79 97.5524C191.039 94.9282 191.892 91.9264 192.017 89.0098C192.094 87.2522 191.549 85.1223 190.517 83.1193C189.689 81.5114 188.554 80.0009 187.185 78.8402C182.464 82.324 177.429 85.1344 173.679 86.9477C170.578 88.446 168.398 89.9687 166.913 91.3104C166.482 91.7002 166.109 92.0639 165.793 92.3997C165.566 92.8835 165.366 93.3255 165.191 93.7135C164.895 94.3643 164.658 94.8847 164.44 95.2519L164.439 95.2553ZM148.17 49.4016C147.893 51.1696 147.857 53.096 148.09 55.1807C150.164 55.9812 151.875 57.0671 153.324 58.5062C156.122 61.287 157.88 65.3399 159.34 71.1851C160.478 75.7392 161.5 80.436 162.318 84.4453C162.344 78.6732 162.796 71.3731 164.44 64.5986C166.097 57.7701 169.283 52.6313 173.105 49.3128C175.515 47.2194 178.177 45.8464 180.878 45.2217C180.816 44.3829 180.685 43.5302 180.48 42.6584C180.271 41.7726 179.919 40.9756 179.448 40.2621C177.896 37.9129 175.033 36.4355 171.721 35.7324C168.335 35.0138 164.5 35.1095 161.091 35.9117C158.945 36.4163 156.977 37.1994 155.414 38.2313C151.581 40.7633 148.937 44.4821 148.168 49.4051L148.17 49.4016ZM182.472 46.4903C182.451 52.955 178.748 58.6994 173.634 66.6311C172.694 68.0876 171.708 69.619 170.733 71.1677C165.612 79.3066 164.489 87.4959 164.291 91.855C164.336 91.7976 164.383 91.7402 164.432 91.681C166.48 87.294 170.5 79.5746 176.801 76.3274C178.614 75.3929 180.36 75.0309 181.997 75.1023C183.911 75.1858 185.66 75.8628 187.19 76.9138C188.178 76.1568 189.148 75.372 190.082 74.5594C193.98 71.1695 197.253 67.3289 198.727 63.2917C198.997 62.5504 199.202 61.8352 199.347 61.1443C200.067 57.7109 199.284 54.8831 197.593 52.6522C195.868 50.3778 193.195 48.6951 190.192 47.5988C189.09 47.1968 187.943 46.8731 186.784 46.6312C185.38 46.3371 183.929 46.2919 182.472 46.4885V46.4903ZM172.339 65.801C177.21 58.2452 180.756 52.7462 180.915 46.7948C178.56 47.3952 176.232 48.6289 174.111 50.4735C170.516 53.5954 167.512 58.461 165.934 64.9588C164.376 71.3766 163.91 78.2868 163.858 83.8641C164.792 79.8077 166.463 75.0675 169.431 70.3499C170.469 68.7019 171.427 67.2158 172.339 65.801ZM173.011 85.566C176.59 83.8363 181.36 81.1808 185.876 77.8936C184.684 77.1627 183.355 76.7015 181.928 76.6406C180.548 76.5815 179.063 76.8947 177.502 77.6987C173.079 79.9765 169.804 84.7464 167.615 88.7662C169.022 87.7273 170.797 86.6362 173.009 85.5677L173.011 85.566ZM160.266 94.9804C157.128 94.0198 151.695 92.2796 144.333 89.6328C139.894 88.0371 136.084 85.7974 132.929 83.2985C131.662 83.8432 130.535 84.4871 129.574 85.1675C128.675 85.8044 127.926 86.4709 127.354 87.1095C125.447 89.2413 124.848 91.8864 125.003 94.615C125.217 98.3999 126.872 102.355 128.544 105.397C129.868 107.804 131.783 108.829 134.335 108.455C137.102 108.051 140.616 106.1 144.923 102.587C150.707 97.8691 156.704 95.8331 160.266 94.9786V94.9804ZM144.85 88.1885C152.271 90.8579 157.713 92.5963 160.809 93.5412C159.168 91.4269 157.509 89.6502 155.854 88.171C150.564 83.4395 145.314 81.7498 140.725 81.7167C138.515 81.7011 136.458 82.0682 134.622 82.6634C137.509 84.8386 140.925 86.7772 144.85 88.1885Z" fill="#899F87"/>
<path fill-rule="evenodd" clip-rule="evenodd" d="M148.114 55.5062C148.241 55.9099 148.019 56.3415 147.615 56.4703C147.211 56.5973 146.78 56.3746 146.651 55.9708C146.646 55.9534 144.648 49.9046 145.509 41.3272C145.241 40.4014 143.562 34.7754 140.35 27.4266C140.303 27.3188 140.27 27.2422 140.249 27.19C138.503 23.0153 138.686 18.4647 140.922 14.2552C143.122 10.1119 147.319 6.30781 153.629 3.54963C153.855 3.45044 154.052 3.36689 154.221 3.29555C155.884 2.60121 157.539 2.04437 159.164 1.61629C164.491 0.213704 169.491 0.201515 173.439 1.19516C177.508 2.22012 180.499 4.32749 181.667 7.117C181.789 7.40935 181.893 7.71388 181.975 8.02537C182.457 9.85604 182.923 11.4413 183.316 12.783C184.427 16.5644 185.034 18.63 183.682 19.307C182.862 19.7176 182.043 19.0494 180.779 18.0175C178.952 16.5262 175.945 14.069 171.367 13.2372C171.273 13.3834 171.182 13.5348 171.095 13.6914C168.875 17.6694 166.945 18.7048 163.713 20.4363C162.043 21.3308 160.005 22.4236 157.337 24.2821C150.227 29.2347 147.262 40.5563 147.053 41.3899C146.2 49.6992 148.113 55.4888 148.118 55.5062H148.114ZM145.518 36.3764C145.436 35.2157 145.318 34.015 145.198 32.7968C144.474 25.4568 143.689 17.4989 150.176 12.5707C154.607 9.20347 158.583 6.53751 162.279 4.98005C166.082 3.37734 169.588 2.93882 172.978 4.09256C176.699 5.35941 178.829 6.44702 179.977 7.15528C178.844 5.09838 176.37 3.52003 173.065 2.68823C169.348 1.75201 164.618 1.77115 159.554 3.10413C157.999 3.51307 156.411 4.04731 154.809 4.71728C154.586 4.80951 154.396 4.8913 154.242 4.95917C148.276 7.56596 144.328 11.1229 142.283 14.9774C140.271 18.7658 140.104 22.8534 141.67 26.6001L141.761 26.8124C143.404 30.5711 144.651 33.8897 145.52 36.3781L145.518 36.3764ZM146.727 32.6472C146.854 33.9367 146.98 35.2053 147.063 36.4373C148.683 32.2817 151.682 26.3425 156.453 23.0188C159.161 21.1324 161.265 20.0065 162.986 19.0825C165.969 17.4833 167.747 16.5296 169.748 12.9449C169.934 12.6107 170.133 12.2992 170.34 12.0052C170.363 11.9669 170.387 11.9321 170.416 11.899C172.583 8.90416 175.724 8.00622 177.969 7.78C176.81 7.19007 175.066 6.42963 172.486 5.55084C169.485 4.52935 166.331 4.94003 162.876 6.39656C159.316 7.8966 155.44 10.4999 151.104 13.7941C145.304 18.2002 146.045 25.716 146.729 32.6472H146.727ZM180.727 9.32354C180.642 9.33572 180.553 9.33399 180.468 9.31659C179.993 9.2522 175.5 8.73885 172.433 11.8834C176.944 12.9048 179.906 15.3237 181.745 16.8255C182.544 17.478 182.925 17.9688 182.993 17.9339C183.195 17.833 182.716 16.2007 181.839 13.2163C181.508 12.0887 181.127 10.7922 180.727 9.32179V9.32354Z" fill="#899F87"/>
<path fill-rule="evenodd" clip-rule="evenodd" d="M147.643 55.1982C147.865 55.5584 147.754 56.0317 147.392 56.2545C147.032 56.4772 146.559 56.3658 146.336 56.0039C146.324 55.983 143.115 50.8112 139.819 47.7763C139.76 47.745 139.704 47.7049 139.654 47.658C139.654 47.658 139.513 47.5292 139.272 47.2925C138.775 46.8731 138.279 46.5129 137.797 46.2345C137.316 45.9839 136.747 45.7559 136.093 45.615C135.385 45.4619 133.624 45.9282 131.372 46.5268C127.046 47.6754 121.013 49.2781 115.797 48.0547C113.236 47.4544 111.781 46.5042 111.207 45.4967C110.86 44.8911 110.807 44.2681 111.003 43.6695C111.182 43.1248 111.572 42.6219 112.138 42.2025C113.523 41.1741 116.128 40.558 119.281 41.0383C122.814 41.576 126.094 42.1416 129.052 42.6845C131.725 43.1753 134.139 43.6521 136.227 44.0749C134.924 42.5975 133.401 40.7373 131.939 38.6369C131.415 38.7726 130.932 38.4802 129.903 37.859C129.174 37.4187 128.074 36.754 126.31 35.8995C125.511 35.5132 124.577 35.1043 123.55 34.6571C118.724 32.5532 111.915 29.581 107.608 23.8401C105.694 21.2873 102.285 19.6863 98.8515 18.684C97.6612 19.6689 93.2029 23.198 88.8681 24.5223C84.1174 25.9736 79.9758 25.415 79.4642 25.3367C79.405 25.3314 79.3458 25.3193 79.2867 25.2984C78.8847 25.1609 78.6706 24.7224 78.8081 24.3204C78.8099 24.3134 79.5999 21.945 80.9242 20.3998C81.8274 19.347 82.9358 18.6544 84.7299 17.5337C85.553 17.0203 86.5258 16.4113 87.6691 15.6526C87.8623 15.4507 88.4261 14.906 89.4563 14.2778C89.9853 13.7888 90.3472 13.352 90.7161 12.9048C91.5305 11.9216 92.3746 10.9019 94.7482 9.3444C96.9669 7.88786 99.5702 6.23991 102.793 5.27411C106.035 4.30309 109.867 4.03686 114.485 5.3768C118.933 6.66627 123.849 10.0735 127.805 13.9507C132.033 18.094 135.195 22.8256 135.566 26.1511C135.844 28.65 135.618 30.9105 135.19 32.7759C134.664 35.0625 133.793 36.8045 133.145 37.6919C135.923 41.6961 138.963 44.8319 140.17 46.0222C140.562 46.3633 140.771 46.6086 140.772 46.6104C140.788 46.6278 140.802 46.6469 140.814 46.6661C144.382 49.9359 147.634 55.179 147.646 55.1999L147.643 55.1982ZM131.929 44.7901C130.932 44.5987 129.881 44.3986 128.772 44.1967C125.901 43.6695 122.655 43.1126 119.05 42.5627C116.323 42.1468 114.151 42.6201 113.05 43.438C112.742 43.666 112.54 43.9096 112.461 44.1463C112.401 44.3325 112.423 44.5343 112.54 44.7379C112.917 45.3992 114.045 46.064 116.144 46.5564C120.99 47.6945 126.808 46.1492 130.977 45.0407C131.304 44.9537 131.621 44.8702 131.927 44.7901H131.929ZM130.471 36.4042C128.995 34.0132 127.698 31.4064 126.922 28.7579C125.575 24.1586 123.618 20.7513 120.39 18.3046C117.129 15.8318 112.538 14.3004 105.946 13.4669C97.4785 12.3984 92.7627 14.0899 90.4917 15.4141C90.4256 15.4751 90.3559 15.5377 90.2846 15.6021C92.2892 15.7744 95.4808 16.1729 98.7471 17.0795C98.8237 17.0882 98.8985 17.1108 98.9698 17.1422C102.772 18.2228 106.644 19.9995 108.833 22.9178C112.895 28.3332 119.488 31.2098 124.161 33.2475C125.21 33.7052 126.164 34.1211 126.975 34.5144C128.647 35.3253 129.728 35.9587 130.471 36.4042ZM128.398 28.3298C129.212 31.1123 130.638 33.8566 132.235 36.3363C132.698 35.5602 133.277 34.2116 133.686 32.4314C134.081 30.7121 134.289 28.6273 134.033 26.3181C133.702 23.3442 130.721 18.9624 126.724 15.0452C122.929 11.3265 118.246 8.06711 114.055 6.85072C109.769 5.60824 106.225 5.85187 103.23 6.74806C100.216 7.65121 97.7204 9.23303 95.5886 10.6321C94.3096 11.4709 93.5161 12.1374 92.9297 12.7256C95.8549 11.7928 100.134 11.1855 106.139 11.9442C113.006 12.8108 117.832 14.4397 121.317 17.083C124.836 19.7507 126.957 23.4138 128.398 28.3315V28.3298ZM96.9982 18.195C93.008 17.2553 89.3449 17.0534 88.3878 17.0151C87.2601 17.7634 86.3309 18.3429 85.5391 18.8371C83.8668 19.8812 82.8332 20.5268 82.0884 21.3951C81.4375 22.1556 80.9276 23.1823 80.6144 23.9132C82.0831 24.0263 85.078 24.0715 88.4191 23.0501C91.7725 22.0251 95.2493 19.554 96.9982 18.195Z" fill="#899F87"/>
<path fill-rule="evenodd" clip-rule="evenodd" d="M183.938 153.429C184.049 153.838 183.807 154.261 183.398 154.373C182.989 154.484 182.566 154.242 182.455 153.833C182.448 153.805 180.515 146.648 175.693 141.142C174.462 140.815 167.528 139.271 160.831 143.952C160.633 144.092 160.038 144.511 159.472 144.911C152.827 149.601 152.581 149.775 142.826 145.593C133.594 141.638 128.104 147.565 127.806 147.897C127.77 147.941 127.73 147.979 127.684 148.012L127.681 148.016L127.674 148.021L127.664 148.028L127.636 148.047L127.629 148.05C127.552 148.099 127.469 148.134 127.378 148.151L127.342 148.158H127.335C127.267 148.169 127.197 148.171 127.128 148.162H127.122L127.075 148.153C127.053 148.148 127.028 148.143 127.008 148.137L126.997 148.134L126.981 148.129C126.955 148.12 126.929 148.11 126.905 148.099L126.877 148.085C126.771 148.031 126.682 147.955 126.612 147.864L126.609 147.861L126.604 147.854L126.597 147.843L126.579 147.816L126.576 147.809C126.529 147.732 126.492 147.649 126.475 147.558L126.468 147.521V147.513C126.463 147.473 126.459 147.431 126.459 147.389C126.456 146.966 126.397 135.142 130.968 129.251C134.454 124.762 138.103 124.1 143.471 123.129C145.297 122.799 147.331 122.43 149.675 121.84C157.807 119.792 161.065 121.514 165.624 123.926C166.219 124.241 166.837 124.568 167.475 124.89C172.9 127.636 176.363 138.622 176.803 140.079C181.914 145.898 183.938 153.396 183.944 153.426L183.938 153.429ZM173.831 139.243C172.404 137.957 170.777 136.852 168.932 136.078C162.942 133.562 160.857 133.983 157.69 134.62C155.52 135.057 152.872 135.591 148.34 135.455C142.774 135.288 138.71 135.864 135.806 137.016C133.009 138.124 131.306 139.774 130.366 141.807C129.76 143.119 129.303 144.163 128.956 144.984C131.668 143.223 136.669 141.278 143.428 144.175C152.395 148.019 152.616 147.863 158.588 143.648C158.872 143.448 159.183 143.228 159.954 142.689C165.274 138.97 170.754 138.881 173.832 139.242L173.831 139.243ZM169.529 134.656C171.326 135.412 172.931 136.454 174.353 137.663C172.981 133.992 170.298 128.047 166.776 126.263C166.108 125.926 165.492 125.6 164.902 125.287C160.647 123.037 157.607 121.427 150.044 123.333C147.707 123.921 145.615 124.3 143.739 124.64C138.721 125.548 135.31 126.166 132.181 130.196C129.618 133.497 128.621 138.916 128.234 142.79C128.454 142.296 128.697 141.755 128.972 141.161C130.072 138.777 132.04 136.856 135.242 135.586C138.336 134.359 142.601 133.744 148.386 133.917C152.747 134.047 155.301 133.534 157.393 133.111C160.845 132.417 163.116 131.959 169.532 134.653L169.529 134.656Z" fill="#899F87"/>
<path fill-rule="evenodd" clip-rule="evenodd" d="M184.126 168.354C183.887 168.705 183.407 168.794 183.057 168.555C182.706 168.315 182.617 167.837 182.855 167.487C182.867 167.47 186.745 161.969 188.657 145.159C188.241 144.078 186.16 138.377 185.05 129.549C184.428 124.611 184.171 120.975 184.89 117.483C185.612 113.969 187.303 110.663 190.575 106.419C195.903 99.5033 202.688 97.65 207.735 96.2735C208.887 95.9585 209.945 95.6697 210.85 95.3565C215.656 93.6876 223.931 93.7415 224.656 93.7502C225.008 93.7311 225.338 93.9574 225.438 94.3106C225.505 94.5508 225.45 94.7961 225.312 94.9806C224.945 95.5287 220.175 102.737 218.374 110.198C217.111 115.433 214.246 117.154 211.403 118.865C209.84 119.804 208.283 120.74 207.092 122.31C205.437 124.494 204.607 126.676 203.699 129.066C202.777 131.493 201.774 134.126 199.784 137.215C196.357 142.531 191.605 144.95 190.155 145.594C188.179 162.606 184.139 168.338 184.127 168.357L184.126 168.354ZM190.519 142.032C190.465 142.63 190.408 143.217 190.35 143.791C192.179 142.849 195.767 140.601 198.487 136.381C200.393 133.423 201.364 130.872 202.258 128.521C203.21 126.018 204.079 123.734 205.862 121.379C207.228 119.576 208.916 118.562 210.611 117.542C213.18 115.998 215.766 114.443 216.878 109.833C218.24 104.188 221.233 98.6993 222.892 95.9377C219.495 97.208 212.177 100.433 203.969 107.077C192.863 116.066 192.271 122.623 190.549 141.71L190.519 142.032ZM189.031 141.421C190.787 121.967 191.42 115.255 203 105.883C209.852 100.335 216.129 97.1105 220.106 95.4034C217.316 95.567 213.822 95.9446 211.347 96.8043C210.387 97.1366 209.308 97.4325 208.135 97.7527C203.302 99.0717 196.805 100.847 191.789 107.357C188.671 111.404 187.065 114.521 186.393 117.789C185.718 121.076 185.97 124.579 186.572 129.361C187.239 134.651 188.253 138.777 189.033 141.421H189.031Z" fill="#899F87"/>
<path fill-rule="evenodd" clip-rule="evenodd" d="M43.3744 104.87C43.2665 105.013 42.3721 106.287 43.7677 107.496C44.77 108.364 46.263 109.043 47.8744 109.153C49.1865 109.241 50.5735 108.947 51.8299 108.06C52.5921 107.52 54.1096 105.992 56.0795 104.01C61.8047 98.2469 71.2625 88.7264 78.5208 87.1707C84.9421 85.7959 93.4185 85.4618 98.3362 85.3922C93.5577 83.7216 84.7437 81.3915 75.6738 82.8359C70.0026 83.739 64.4932 86.4015 59.5406 89.7723C52.78 94.3733 47.0688 100.283 43.3883 104.856L43.3744 104.872V104.87ZM42.7618 108.658C40.3847 106.598 41.8726 104.324 42.1511 103.944C42.1632 103.927 42.1771 103.908 42.1893 103.892C45.9429 99.2284 51.769 93.1987 58.6723 88.5019C63.7902 85.0181 69.5084 82.2616 75.432 81.3184C89.169 79.131 102.311 85.2948 102.652 85.4566C102.922 85.5784 103.106 85.8516 103.103 86.1649C103.097 86.5895 102.749 86.9288 102.326 86.9236C102.286 86.9236 88.278 86.6538 78.8392 88.6759C72.0281 90.1359 62.7722 99.4529 57.1688 105.095C55.1415 107.134 53.5822 108.705 52.7139 109.32C51.1408 110.432 49.4076 110.801 47.7718 110.689C45.8141 110.557 43.9921 109.725 42.7618 108.66V108.658Z" fill="#899F87"/>
<path fill-rule="evenodd" clip-rule="evenodd" d="M92.8448 107.618C93.2677 107.67 93.567 108.053 93.5165 108.476C93.4643 108.899 93.0814 109.198 92.6586 109.148C92.6255 109.144 80.8514 107.641 76.2295 113.611C74.5711 115.752 73.0677 118.536 71.8113 121.275C69.9893 125.241 68.6928 129.036 68.1916 130.667C70.1807 130.442 75.1732 129.417 82.9797 124.783C93.292 118.663 97.1953 108.867 97.2074 108.84C97.3223 108.559 97.599 108.363 97.9209 108.364L107.856 108.432C107.922 108.427 107.99 108.432 108.059 108.445C108.477 108.526 108.748 108.93 108.667 109.348C108.661 109.374 106.977 118.701 94.672 126.835C87.2067 131.77 78.638 132.838 73.0589 132.838C71.2927 132.838 69.817 132.73 68.7711 132.605C68.1186 132.527 67.5826 132.405 67.198 132.276C66.9491 132.276 66.7038 132.156 66.5542 131.933C66.4654 131.799 66.4219 131.655 66.4219 131.497C66.4219 131.49 66.4219 131.479 66.4254 131.465C66.4288 131.364 66.4532 131.267 66.4932 131.18C66.8204 129.937 68.2665 125.316 70.4138 120.638C71.7155 117.805 73.2782 114.916 75.0132 112.673C80.1798 106 92.8083 107.616 92.8448 107.62V107.618ZM72.4446 131.291C72.6447 131.295 72.8483 131.297 73.0572 131.297C78.4343 131.297 86.6793 130.273 93.8228 125.552C103.322 119.274 106.171 112.388 106.918 109.96L98.4203 109.903C97.4684 112.001 93.1545 120.534 83.7628 126.107C79.0016 128.933 75.2011 130.463 72.4464 131.291H72.4446Z" fill="#899F87"/>
<path fill-rule="evenodd" clip-rule="evenodd" d="M20.6027 47.7938C20.9542 47.5553 21.4327 47.6441 21.6711 47.9956C21.9096 48.3471 21.8208 48.8257 21.4693 49.0641C21.4136 49.1024 1.81562 62.0302 1.54589 104.308C1.41016 125.555 3.0773 137.662 5.47005 144.955C7.80885 152.086 10.8454 154.533 13.5375 156.503C14.8809 157.486 16.1338 158.363 17.3276 159.198C21.4483 162.082 24.8991 164.497 26.079 166.914C26.4653 167.706 26.688 169.293 26.996 171.493C27.9566 178.349 29.7908 191.435 39.4105 201.875C44.29 207.168 49.4914 212.241 54.6719 217.291C63.0822 225.491 71.4368 233.635 78.2705 242.579C79.3129 243.943 80.3866 245.163 81.4829 246.244C86.0648 250.758 91.0817 252.902 95.9316 253.159C100.774 253.417 105.471 251.799 109.413 248.786C110.312 248.099 111.172 247.34 111.981 246.519C115.195 243.256 117.458 239.529 118.455 235.947C119.038 233.854 119.187 231.816 118.838 229.961C118.495 228.141 117.666 226.491 116.29 225.136C114.96 223.825 113.112 222.779 110.692 222.104C104.399 220.35 98.3243 219.602 92.9384 220.011C87.8815 220.394 83.4423 221.801 80.0194 224.361C77.3743 226.338 74.4943 227.048 71.9745 226.824C70.4066 226.684 68.9744 226.181 67.8172 225.395C66.6304 224.589 65.7308 223.488 65.2627 222.175C64.725 220.67 64.7528 218.899 65.5619 216.988C68.5115 210.027 72.4426 207.906 82.6679 202.393C83.3083 202.047 83.9748 201.688 84.6674 201.314C96.2727 195.034 101.159 193.45 101.173 193.445C101.575 193.313 102.01 193.53 102.142 193.932C102.205 194.122 102.189 194.319 102.113 194.489H102.114C102.109 194.501 100.428 198.199 96.1177 206.82C93.6832 211.689 88.9656 216.576 85.266 219.948C87.5891 219.165 90.1263 218.681 92.8253 218.476C98.3852 218.055 104.638 218.822 111.103 220.623C113.789 221.372 115.858 222.553 117.369 224.041C118.98 225.628 119.95 227.556 120.35 229.679C120.743 231.769 120.581 234.042 119.937 236.358C118.871 240.188 116.473 244.152 113.078 247.598C112.213 248.477 111.299 249.282 110.346 250.011C106.119 253.241 101.072 254.976 95.8515 254.698C90.6397 254.421 85.273 252.14 80.4039 247.342C79.2519 246.207 78.1296 244.934 77.0454 243.515C70.2761 234.656 61.965 226.554 53.5982 218.396C48.3951 213.323 43.1693 208.228 38.2759 202.919C28.3325 192.13 26.4548 178.728 25.4699 171.707C25.1828 169.653 24.9739 168.172 24.6903 167.591C23.681 165.524 20.3817 163.215 16.4436 160.458C15.1907 159.581 13.8768 158.661 12.6239 157.745C9.74217 155.636 6.48976 153.019 4.00305 145.434C1.56853 138.01 -0.128137 125.747 0.00759736 104.304C0.282546 61.2053 20.54 47.8355 20.5992 47.7955L20.6027 47.7938ZM79.1023 223.122L79.2659 223C80.6824 221.913 90.8381 213.95 94.7483 206.129C97.3777 200.869 99.0343 197.425 99.9184 195.559C97.63 196.492 92.9872 198.558 85.3983 202.663C84.7057 203.037 84.0392 203.397 83.3988 203.742C73.5163 209.07 69.7157 211.12 66.9802 217.578C66.3346 219.102 66.3033 220.491 66.7174 221.65C67.0759 222.652 67.7685 223.495 68.6821 224.118C69.627 224.76 70.8086 225.172 72.1102 225.287C74.2802 225.48 76.7809 224.855 79.1023 223.119V223.122Z" fill="#899F87"/>
<path fill-rule="evenodd" clip-rule="evenodd" d="M71.0369 204.083C71.0926 204.37 70.9813 204.676 70.7272 204.855C70.722 204.859 68.7921 206.225 68.3919 209.39C68.2318 210.664 68.1639 211.736 68.1065 212.65C68.0056 214.242 67.9342 215.38 67.4417 216.551C67.3094 216.864 67.1267 217.151 66.9005 217.402C66.4028 217.957 65.6981 218.33 64.8837 218.46C64.1093 218.584 63.2322 218.488 62.3465 218.116C61.7374 217.86 61.1197 217.472 60.5211 216.936C59.0663 215.629 56.7396 212.175 55.5667 208.477C54.7315 205.84 54.4652 203.047 55.4711 200.731C56.8667 197.517 58.6277 197.146 60.3644 196.783C61.0222 196.645 61.6747 196.508 62.2786 196.13L61.8314 195.377C60.3888 192.946 58.7165 190.128 56.1828 186.998C55.2883 188.237 54.3242 189.143 51.7105 188.988C48.7469 188.813 45.3728 188.527 42.6772 186.538C39.9695 184.542 38.0379 180.9 38.0727 174.079C38.0988 168.942 38.2919 163.644 38.5182 159.099C38.0883 160.084 37.5837 161.088 36.9885 162.099C34.6549 166.06 32.0029 168.296 29.4431 169.518C26.8642 170.748 24.3897 170.946 22.4198 170.838C18.3547 170.617 17.5386 169.636 17.5368 169.634C17.2897 169.359 17.2758 168.957 17.4847 168.668L20.8327 163.152C20.4969 161.594 19.3466 154.684 24.2156 150.198C29.5162 145.317 39.651 146.02 40.1052 146.053H40.1261C40.5177 146.084 40.8187 146.404 40.8343 146.787C40.8396 146.836 40.8448 146.907 40.8483 147.001C40.8935 147.725 40.9649 149.96 40.4063 152.946C40.0687 158.286 39.6493 166.392 39.6092 174.084C39.5762 180.314 41.2468 183.571 43.5874 185.296C45.9383 187.029 49.0567 187.288 51.8027 187.452C53.797 187.57 54.4583 186.791 55.163 185.774C53.2071 183.495 52.0255 181.051 51.5904 178.66C51.2406 176.739 51.3764 174.856 51.9837 173.121C52.5911 171.383 53.6664 169.799 55.1943 168.486C57.0929 166.852 59.6962 165.626 62.9747 165.031C67.3617 164.234 70.7899 164.332 73.2835 165.035C74.7975 165.461 75.9825 166.112 76.8474 166.926C77.7453 167.774 78.2935 168.792 78.4988 169.916C78.6606 170.807 78.6033 171.755 78.3301 172.725C77.6096 175.283 76.5655 177.444 74.3711 179.135C72.2272 180.787 69.0114 181.948 63.9457 182.527C59.6944 183.014 58.1109 184.386 57.1085 185.691C59.858 189.03 61.633 192.023 63.1574 194.592L63.3993 194.999L63.415 194.975C64.654 193.041 65.7555 191.616 68.1447 190.765C70.4122 189.956 73.8213 189.721 79.6822 190.137C91.2335 190.957 101.558 193.41 101.589 193.417C102.004 193.513 102.261 193.927 102.164 194.341C102.103 194.602 101.916 194.799 101.683 194.888C101.142 195.123 94.5294 197.956 86.709 199.142C83.5923 199.616 80.8132 200.843 78.3283 201.939C75.631 203.129 73.2522 204.18 71.0334 204.079L71.0369 204.083ZM66.8692 209.197C67.2538 206.145 68.9 204.412 69.5613 203.829C68.9905 203.651 68.4284 203.378 67.8716 202.99C65.8599 201.586 64.4921 199.729 63.0895 197.467C62.3134 197.945 61.499 198.117 60.6794 198.288C59.329 198.572 57.9577 198.859 56.8805 201.338C56.0453 203.263 56.2976 205.684 57.0354 208.012C58.1248 211.447 60.2391 214.613 61.5495 215.791C62.0106 216.205 62.4822 216.501 62.9416 216.694C63.5559 216.951 64.1423 217.023 64.6418 216.943C65.1012 216.87 65.4892 216.668 65.7555 216.372C65.8634 216.252 65.9539 216.111 66.0183 215.954C66.4116 215.016 66.4777 213.988 66.5682 212.552C66.6256 211.635 66.6935 210.561 66.8658 209.195L66.8692 209.197ZM64.7097 195.808C64.5617 196.038 64.4121 196.245 64.259 196.429C65.6215 198.646 66.9127 200.447 68.7503 201.73C71.1692 203.42 74.124 202.116 77.7105 200.533C80.2843 199.396 83.1625 198.126 86.481 197.621C91.5937 196.845 96.1669 195.354 98.7876 194.385C95.0828 193.621 87.6313 192.246 79.5743 191.674C73.9465 191.273 70.7289 191.48 68.6633 192.218C66.7195 192.912 65.7799 194.138 64.7097 195.808ZM53.1026 178.392C53.4698 180.415 54.4599 182.501 56.094 184.487C57.2756 183.018 59.1567 181.526 63.7717 180.999C68.5363 180.453 71.5086 179.403 73.4315 177.921C75.3039 176.478 76.2105 174.578 76.8491 172.311C77.0597 171.562 77.1067 170.845 76.9884 170.187C76.8439 169.39 76.4471 168.661 75.7946 168.047C75.1072 167.4 74.1345 166.872 72.8694 166.517C70.5811 165.874 67.386 165.792 63.2461 166.545C60.26 167.088 57.9038 168.19 56.2002 169.657C54.8794 170.795 53.9519 172.15 53.435 173.631C52.9164 175.116 52.8016 176.736 53.1026 178.392ZM39.1307 148.996C39.1725 148.406 39.2091 147.918 39.2369 147.553C36.8268 147.475 29.3509 147.562 25.258 151.331C21.2782 154.996 21.9134 160.603 22.2597 162.466C24.8038 162.24 34.0755 161.057 36.6544 155.734C38.1823 152.58 38.847 150.396 39.1307 148.996ZM35.6661 161.321C36.5274 159.859 37.1904 158.413 37.6985 157.033C34.2721 162.759 24.2417 163.851 22.1013 164.022L19.1761 168.842C19.6685 169.002 20.6361 169.201 22.4998 169.303C24.2678 169.399 26.4848 169.223 28.7836 168.127C31.1015 167.02 33.5152 164.974 35.6661 161.323V161.321Z" fill="#899F87"/>
<path fill-rule="evenodd" clip-rule="evenodd" d="M40.837 146.979C40.9415 147.392 40.6927 147.811 40.2802 147.916C39.8678 148.02 39.4484 147.771 39.344 147.359C39.337 147.334 37.4385 139.758 32.4442 133.597C31.4731 133.22 26.2422 131.447 18.709 133.759C15.5958 134.715 12.8358 136.053 10.5614 137.154C8.57236 138.118 6.94005 138.91 5.66798 139.159C3.96086 139.495 2.87326 139.009 2.49912 137.114C1.66731 132.884 3.94874 131.582 8.776 128.826C9.3172 128.516 9.89663 128.185 10.5509 127.804C13.7807 125.92 17.6666 124.829 21.6499 125.314C25.0188 125.723 28.447 127.254 31.5985 130.373C32.2684 131.036 32.8949 131.73 33.4813 132.442C33.4987 132.461 33.5144 132.48 33.5283 132.499C38.8237 138.964 40.8266 146.952 40.8336 146.978L40.837 146.979ZM30.5352 131.481L30.516 131.462C27.636 128.612 24.5194 127.214 21.4706 126.844C17.8423 126.402 14.2889 127.406 11.3219 129.136C10.718 129.487 10.1072 129.837 9.5347 130.164C5.36349 132.546 3.39182 133.67 4.01132 136.82C4.16446 137.598 4.63262 137.795 5.3722 137.649C6.45459 137.436 8.0033 136.684 9.8914 135.769C12.2111 134.645 15.0249 133.281 18.2547 132.291C23.6162 130.644 27.9371 130.965 30.5334 131.481H30.5352Z" fill="#899F87"/>
<path fill-rule="evenodd" clip-rule="evenodd" d="M334.933 347.176C335.105 347.564 334.933 348.018 334.545 348.191C334.158 348.363 333.702 348.191 333.53 347.802C333.5 347.736 323.47 325.05 308.033 311.704C300.171 304.905 295.476 300.256 293.029 295.032C290.598 289.839 290.422 284.188 291.618 275.456C290.276 273.8 282.854 264.556 279.116 258.075C276.927 254.282 276.628 249.402 278.236 244.098C279.753 239.092 282.98 233.694 287.925 228.477C297.554 218.319 314.294 212.115 315.721 211.599C315.789 211.572 315.827 211.56 315.827 211.56C316.227 211.421 316.666 211.632 316.805 212.034C316.83 212.105 316.844 212.178 316.847 212.249C316.847 212.281 317.402 222.922 313.227 230.991C312.143 233.086 311.177 234.602 310.353 235.893C308.169 239.318 307.038 241.091 307.328 248.965C307.721 259.598 294.795 273.813 293.149 275.578C291.983 284.056 292.126 289.489 294.416 294.381C296.744 299.352 301.33 303.88 309.034 310.542C324.73 324.113 334.898 347.11 334.927 347.176H334.933ZM291.872 273.318C292.439 267.075 291.365 261.782 290.387 256.958C288.778 249.026 287.417 242.323 293.595 234.644C299.537 227.255 303.971 223.028 306.949 220.19C308.976 218.256 310.309 216.986 310.922 215.862C311.092 215.55 311.275 215.258 311.466 214.985C305.56 217.58 295.592 222.628 289.042 229.538C284.266 234.578 281.159 239.762 279.708 244.545C278.225 249.435 278.478 253.894 280.449 257.311C283.587 262.749 289.409 270.225 291.874 273.318H291.872ZM291.893 256.657C292.867 261.462 293.936 266.724 293.447 272.952C297.158 268.694 306.112 257.51 305.797 249.019C305.487 240.672 306.707 238.761 309.061 235.068C309.86 233.815 310.798 232.345 311.863 230.286C315.042 224.14 315.345 216.382 315.338 213.483C314.452 213.99 313.165 214.954 312.27 216.595C311.539 217.936 310.139 219.271 308.009 221.302C305.061 224.112 300.674 228.296 294.794 235.606C289.067 242.725 290.363 249.106 291.894 256.657H291.893Z" fill="#899F87"/>
<path fill-rule="evenodd" clip-rule="evenodd" d="M308.183 309.797C308.501 310.077 308.534 310.562 308.256 310.881C307.978 311.199 307.492 311.232 307.172 310.954C307.121 310.909 289.359 295.404 273.061 282.774C266.265 277.508 260.227 274.321 254.904 272.835C253.955 273.185 249.775 275.037 247.609 281.195C246.232 285.107 242.164 287.928 237.104 290.061C232.17 292.141 226.281 293.58 221.082 294.742C210.889 297.022 202.159 296.425 201.712 296.394C201.619 296.39 201.525 296.37 201.437 296.33C201.047 296.159 200.871 295.703 201.042 295.315C201.809 293.571 202.733 291.897 204.701 289.277C206.635 286.701 209.588 283.202 214.429 277.779C216.581 275.371 218.172 273.41 219.458 271.823C224.064 266.143 224.943 265.06 233.912 264.404C244.635 263.619 254.058 270.451 255.224 271.332C260.76 272.861 267.007 276.138 273.999 281.559C290.329 294.215 308.131 309.755 308.183 309.8V309.797ZM252.589 272.285C246.434 271.092 241.304 272.285 237.124 275.183C231.352 279.187 230.63 279.528 226.687 281.392C224.839 282.265 222.275 283.478 218.137 285.568C209.393 289.987 205.227 293.286 203.469 294.927C206.476 295.004 213.202 294.929 220.753 293.241C225.884 292.092 231.69 290.676 236.51 288.643C241.203 286.665 244.953 284.115 246.159 280.685C247.832 275.933 250.659 273.472 252.589 272.282V272.285ZM236.251 273.919C240.365 271.067 245.312 269.74 251.149 270.497C247.451 268.349 241.017 265.426 234.022 265.937C225.717 266.545 224.907 267.543 220.652 272.788C219.362 274.377 217.77 276.342 215.574 278.801C210.764 284.187 207.837 287.655 205.93 290.195C205.463 290.818 205.058 291.384 204.701 291.908C207.172 290.009 211.175 287.364 217.443 284.197C221.612 282.09 224.179 280.877 226.029 280.001C229.882 278.179 230.586 277.845 236.251 273.918V273.919Z" fill="#899F87"/>
<path fill-rule="evenodd" clip-rule="evenodd" d="M275.043 282.366C275.372 282.635 275.421 283.121 275.151 283.45C274.881 283.779 274.396 283.828 274.067 283.558C274.036 283.532 263.053 274.702 251.424 250.893C247.397 242.65 244.254 235.837 241.527 229.927L240.386 227.454C240.374 227.43 240.361 227.406 240.351 227.38C235.915 217.782 232.47 210.545 227.538 202.7C223.369 196.07 220.153 190.456 218.091 185.149C216.009 179.789 215.108 174.753 215.595 169.324C215.672 168.46 215.837 167.653 216.077 166.903C217.282 163.139 220.367 160.727 224.046 159.345C227.632 157.997 231.798 157.631 235.285 157.945C236.832 158.084 238.252 158.355 239.436 158.735L239.472 158.747L239.517 158.761H239.521C245.895 160.8 252.014 162.76 252.517 171.93C254.77 171.128 257.053 170.792 259.235 170.933C263.469 171.206 267.489 173.517 270.587 176.69C273.952 180.139 276.244 184.632 276.542 188.64C276.834 192.598 274.831 197.381 271.328 201.654C270.472 202.699 269.525 203.713 268.5 204.679C269.005 205.17 269.48 205.716 269.929 206.318L269.946 206.342C271.161 207.982 272.179 210.035 273.094 212.489C274.629 216.604 275.273 218.995 275.165 221.097C275.054 223.245 274.192 224.955 272.715 227.733C271.901 229.262 271.499 230.689 271.156 231.899C270.204 235.264 269.649 237.224 263.967 236.357C258.235 235.484 247.08 230.648 242.638 228.652L242.927 229.278C245.629 235.137 248.746 241.891 252.811 250.212C264.291 273.714 275.014 282.334 275.045 282.361L275.043 282.366ZM228.838 201.882C231.683 206.407 234.031 210.717 236.35 215.374C235.334 209.4 234.45 200.12 236.549 191.64C238.185 185.032 241.334 179.953 245.114 176.477C246.955 174.784 248.947 173.472 250.989 172.546C250.679 163.948 244.983 162.124 239.048 160.224L238.999 160.209L238.962 160.198C237.882 159.852 236.578 159.603 235.15 159.476C231.864 159.182 227.947 159.523 224.583 160.786C221.312 162.017 218.578 164.124 217.537 167.375C217.33 168.024 217.188 168.718 217.121 169.458C216.657 174.633 217.523 179.453 219.521 184.595C221.538 189.79 224.714 195.325 228.836 201.882H228.838ZM239.418 221.734C240.128 223.243 240.854 224.804 241.606 226.431C243.643 226.892 253.778 229.047 258.602 227.46C261.938 226.361 262.366 225.747 263.431 224.221C264.101 223.26 264.994 221.978 266.786 220.113C268.652 218.169 269.515 216.075 269.795 214.109C270.2 211.269 269.403 208.688 268.658 207.197C268.246 206.647 267.811 206.153 267.348 205.714C264.663 208.022 261.519 209.985 258.097 211.3C249.062 214.775 241.39 220.264 239.418 221.733V221.734ZM252.544 173.561C252.538 174.073 252.513 174.603 252.475 175.157C251.739 185.453 248.725 192.659 245.366 200.694C244.916 201.771 244.461 202.859 244.125 203.673C241.898 209.082 240.591 214.353 239.895 217.762C243.325 212.572 250.387 203.069 256.742 201.942C261.171 201.157 264.482 201.708 267.103 203.529C267.176 203.579 267.247 203.631 267.319 203.683C268.344 202.726 269.289 201.719 270.139 200.682C273.399 196.705 275.268 192.318 275.003 188.751C274.733 185.098 272.607 180.965 269.482 177.763C266.631 174.843 262.963 172.717 259.136 172.47C257.003 172.332 254.756 172.7 252.544 173.559V173.561ZM250.938 175.047C250.958 174.777 250.971 174.513 250.982 174.254C249.311 175.089 247.679 176.209 246.155 177.61C242.582 180.896 239.598 185.716 238.04 192.007C235.672 201.578 237.224 212.235 238.341 217.669C239.042 214.194 240.384 208.713 242.7 203.087C243.198 201.879 243.572 200.983 243.941 200.1C247.251 192.188 250.218 185.09 250.937 175.045L250.938 175.047ZM257.549 209.868C260.709 208.652 263.624 206.852 266.134 204.733C263.873 203.203 260.955 202.756 257.005 203.457C251.178 204.491 244.465 213.602 241.167 218.612C244.672 216.235 250.728 212.492 257.551 209.868H257.549ZM271.65 213.028C271.58 212.842 271.511 212.659 271.439 212.478C271.443 213.079 271.406 213.696 271.316 214.326C270.996 216.576 270.014 218.969 267.893 221.179C266.177 222.966 265.326 224.186 264.689 225.102C263.412 226.932 262.9 227.667 259.084 228.923C256.065 229.917 251.239 229.579 247.317 229.027C252.537 231.257 259.951 234.192 264.193 234.838C268.537 235.499 268.954 234.023 269.671 231.486C270.037 230.197 270.465 228.678 271.351 227.012C272.729 224.419 273.533 222.834 273.625 221.021C273.721 219.164 273.106 216.931 271.65 213.026V213.028Z" fill="#899F87"/>
<path fill-rule="evenodd" clip-rule="evenodd" d="M239.22 221.384C239.265 221.685 239.129 221.974 238.893 222.134C239.676 222.976 240.17 223.547 240.288 223.686C240.513 223.921 240.57 224.283 240.407 224.584C240.37 224.652 240.323 224.713 240.271 224.765C240.166 224.88 239.731 225.353 239.039 226.093C237.849 227.562 236.037 230.311 234.842 234.519L234.831 234.555C233.825 238.088 232.705 240.942 231.074 243.136C229.397 245.393 227.209 246.933 224.105 247.763C219.584 248.973 215.352 249.155 213.573 249.173C211.226 249.323 208.591 248.19 203.456 245.978L202.937 245.755C193.331 241.622 195.869 232.714 198.3 224.175C198.881 222.134 199.457 220.114 199.838 218.246C200.022 217.345 200.301 216.511 200.661 215.744C200.762 215.53 200.868 215.323 200.981 215.119C198.893 214.35 196.833 213.44 194.85 212.345C192.569 211.087 190.947 209.554 189.865 207.863V207.859C188.412 205.588 187.937 203.053 188.144 200.516C188.347 198.017 189.214 195.518 190.453 193.271C192.118 190.252 194.475 187.673 196.812 186.168L196.852 186.142L196.981 186.06L196.986 186.057C200.555 183.853 206.966 182.959 213.345 184.008C219.721 185.056 226.109 188.039 229.682 193.581C229.692 193.595 229.703 193.611 229.712 193.625C229.734 193.661 229.788 193.746 229.861 193.865C236.744 205.016 239.213 221.333 239.22 221.38V221.384ZM237.549 220.73C236.935 217.227 234.335 204.041 228.554 194.674L228.417 194.458L228.394 194.422C225.091 189.29 219.098 186.514 213.096 185.527C207.07 184.536 201.079 185.34 197.797 187.362L197.668 187.443L197.645 187.457C195.514 188.83 193.347 191.211 191.802 194.014C190.66 196.082 189.865 198.37 189.679 200.637C189.496 202.865 189.905 205.075 191.156 207.034C192.106 208.517 193.547 209.871 195.588 210.999C197.603 212.11 199.707 213.028 201.849 213.798C203.501 211.658 205.915 210.231 208.655 209.418C212.078 208.404 216.023 208.355 219.599 209.086C221.298 209.432 222.92 209.956 224.366 210.637C229.518 213.059 234.556 217.677 237.549 220.728V220.73ZM203.402 214.329C209.127 216.191 215.021 217.082 220.099 217.85C223.744 218.4 226.978 218.889 229.492 219.637C232.663 220.58 235.03 221.414 236.712 222.066C233.845 219.111 228.822 214.43 223.715 212.03C222.378 211.402 220.873 210.917 219.291 210.593C215.947 209.909 212.27 209.953 209.089 210.894C206.832 211.562 204.832 212.687 203.402 214.329ZM219.869 219.372C214.588 218.574 208.438 217.644 202.452 215.638C202.307 215.881 202.173 216.134 202.05 216.395C201.74 217.054 201.5 217.775 201.34 218.554C200.936 220.529 200.36 222.552 199.779 224.596C197.529 232.498 195.181 240.742 203.543 244.34L204.061 244.563C208.433 246.444 210.902 247.507 212.79 247.635C212.896 247.636 213.122 247.641 213.453 247.638C213.535 247.633 213.617 247.626 213.697 247.617C215.625 247.403 217.389 245.938 220.864 243.054V243.051L221.714 242.346C227.399 237.641 230.046 234.197 232.052 231.587C232.967 230.396 233.752 229.375 234.638 228.468C236.028 227.043 237.144 225.87 237.92 225.042C238.108 224.812 238.282 224.61 238.437 224.438C237.079 223.822 234.146 222.619 229.059 221.107C226.663 220.395 223.47 219.912 219.871 219.369L219.869 219.372ZM221.844 244.238C220.269 245.545 219.025 246.578 217.93 247.356C219.643 247.159 221.641 246.829 223.706 246.277C226.449 245.545 228.373 244.194 229.839 242.221C231.34 240.199 232.393 237.5 233.352 234.129L233.361 234.098C233.674 232.998 234.029 231.99 234.405 231.072C234.039 231.526 233.667 232.011 233.269 232.528C231.215 235.201 228.504 238.727 222.697 243.535L221.848 244.239L221.844 244.238Z" fill="#899F87"/>
<path fill-rule="evenodd" clip-rule="evenodd" d="M233.947 233.349C233.683 233.017 233.738 232.533 234.071 232.268C234.403 232.004 234.887 232.06 235.151 232.392C235.16 232.404 238.351 236.511 243.454 235.392C248.291 234.331 247.51 230.413 247.508 230.403C247.432 229.985 247.709 229.585 248.126 229.509C248.544 229.432 248.944 229.709 249.021 230.126C249.024 230.142 250.089 235.514 243.779 236.899C237.734 238.225 233.959 233.365 233.947 233.351V233.349Z" fill="#899F87"/>
</svg>
