<svg width="236" height="59" viewBox="0 0 236 59" fill="none" xmlns="http://www.w3.org/2000/svg">
<path fill-rule="evenodd" clip-rule="evenodd" d="M143.777 17.023C140.057 17.023 137.072 18.0149 133.972 19.5026C133.995 10.8691 134.11 3.34015 134.317 0.5L116.245 3.92626V5.52679L118.013 5.75228C120.539 6.09052 121.504 7.53311 121.802 10.8468C122.376 17.1809 122.284 51.1289 121.802 56.5614C126.67 57.6434 131.929 58.455 137.21 58.455C151.538 58.455 160.172 49.7539 160.172 35.9807C160.172 24.9576 153.169 17.023 143.777 17.023ZM137.486 55.6596C136.452 55.6596 135.143 55.5019 134.409 55.3665C134.133 51.557 133.949 35.8453 133.972 22.1173C135.625 21.5762 136.751 21.4411 138.197 21.4411C144.122 21.4411 147.474 28.1585 147.474 36.6569C147.474 47.4545 143.364 55.6596 137.486 55.6596ZM48.3223 17.4513L45.4978 18.2177C43.041 10.1476 39.1143 5.59435 31.8122 5.59435H22.4438C22.0074 10.734 21.8467 19.2997 21.8927 28.2037L28.2074 28.0009C32.4095 27.8656 34.1546 24.8 35.165 20.2691H37.5301V39.1363H35.165C34.1546 34.6054 32.3866 31.5623 28.2074 31.4045L21.9157 31.2017C21.9845 37.9642 22.1682 43.7349 22.4667 47.1612C22.903 52.1881 24.2808 54.3971 27.9087 54.9155L31.1235 55.2538V57.5079H0.560547V55.2538L3.0865 54.9155C6.71464 54.397 8.09239 52.188 8.52856 47.1612C9.21736 38.8883 9.33221 21.6663 8.52856 12.0636C8.09225 7.03665 6.71449 4.82765 3.0865 4.30925L0.560547 3.97115V1.71696H48.0698L48.3223 17.4513ZM63.5235 16.5721C77.0255 16.5721 83.7303 25.5662 83.7303 37.4007C83.7303 48.9645 76.1527 58.4547 62.6507 58.4547C49.1487 58.4547 42.4208 49.4606 42.4208 37.6261C42.4208 26.0623 49.9987 16.5721 63.5235 16.5721ZM62.8116 19.142C56.8415 19.142 55.1652 27.0767 55.1652 37.5135C55.1652 47.6799 57.806 55.885 63.3398 55.885C69.3099 55.885 70.9862 47.9504 70.9862 37.5135C70.9862 27.3471 68.3457 19.142 62.8116 19.142ZM163.479 37.8967C163.456 26.9188 170.528 16.6172 184.444 16.6172C195.764 16.6172 201.183 24.8675 201.229 35.6425H175.97C175.695 45.4255 180.747 52.6166 190.391 52.6166C194.639 52.6166 196.935 51.5798 199.507 49.6635L200.701 51.0612C197.9 54.8708 192.044 58.5 184.283 58.5C172.09 58.4773 163.502 50.0016 163.479 37.8967ZM176.062 32.8474L188.737 32.577C188.806 27.0767 187.911 19.2096 183.341 19.2096C178.749 19.2096 176.177 26.6484 176.062 32.8474ZM233.698 28.9251L231.632 29.4661C229.427 22.4557 226.075 19.4801 221.184 19.4801C217.923 19.4801 215.558 21.892 215.558 25.3861C215.558 28.8577 218.199 30.6834 225.845 33.5913C232.895 36.2738 235.696 39.3619 235.696 44.9748C235.696 53.3603 229.152 58.4999 218.405 58.4999C213.239 58.4999 207.498 57.3728 204.145 56.0428L203.778 44.4563L205.845 43.9154C208.807 52.0303 212.665 54.9834 217.739 54.9834C222.056 54.9834 224.467 51.9628 224.467 48.7393C224.467 45.606 222.653 43.7351 215.764 41.3006C209.358 39.0464 204.72 36.2963 204.72 29.2633C204.72 22.4332 210.873 16.5948 221.046 16.5948C225.776 16.5948 230.254 17.4064 233.262 18.7588L233.698 28.9251ZM114.569 28.6095C109.104 25.0028 103.202 26.5808 101.985 28.5419C101.572 35.034 101.664 44.9748 102.123 49.9791C102.422 53.2928 103.386 54.7354 105.912 55.0736L109.173 55.2991V57.5533H84.0979V55.2991L85.866 55.0736C88.3919 54.7354 89.3563 53.2928 89.6548 49.9791C90.137 44.5464 90.2288 33.2305 89.6548 26.8964C89.3563 23.5827 88.3919 22.1401 85.866 21.8019L84.0979 21.5764V19.9759L102.101 16.5495L101.894 25.7917C106.096 16.2791 114.409 15.0393 118.978 17.6993L114.569 28.6095Z" fill="#C8D8C0"/>
</svg>
