<svg width="180" height="101" viewBox="0 0 180 101" fill="none" xmlns="http://www.w3.org/2000/svg">
<path d="M13.9333 42.8915H7.4837V7.08086H0.364258V1.13232H21.1093V7.08086H13.9271V42.8915H13.9333Z" fill="#C8D8C0"/>
<path d="M30.7397 24.9646V42.8919H24.2903V1.12646H30.7397V19.0099H39.9444V1.12646H46.394V42.8857H39.9444V24.9584H30.7397V24.9646Z" fill="#C8D8C0"/>
<path d="M73.9078 29.6169C73.9078 34.3132 73.2191 37.131 71.5284 39.5103C69.6499 42.1403 66.5189 43.5179 62.5116 43.5179C58.504 43.5179 55.3732 42.1403 53.4947 39.5103C51.8041 37.131 51.1151 34.3132 51.1151 29.6169V14.401C51.1151 9.7047 51.8041 6.88694 53.4947 4.50757C55.3732 1.87766 58.504 0.5 62.5116 0.5C66.5189 0.5 69.6499 1.87766 71.5284 4.50757C73.2191 6.88694 73.9078 9.7047 73.9078 14.401V29.6169ZM57.5648 29.4918C57.5648 32.8104 57.7526 33.8748 58.3788 35.1898C59.1303 36.5674 60.6955 37.444 62.5116 37.444C64.3274 37.444 65.8929 36.5674 66.6443 35.1898C67.333 33.8748 67.4582 32.8731 67.4582 29.4918V14.5261C67.4582 11.1448 67.333 10.1431 66.6443 8.82815C65.8929 7.45049 64.3274 6.57394 62.5116 6.57394C60.6955 6.57394 59.1303 7.45049 58.3788 8.82815C57.7526 10.0804 57.5648 11.2075 57.5648 14.5261V29.4918Z" fill="#C8D8C0"/>
<path d="M100.22 1.12646V29.4293C100.22 34.6891 99.5933 37.3817 97.8402 39.7611C96.0241 42.2032 92.9561 43.5181 89.1991 43.5181C85.442 43.5181 82.311 42.2032 80.4952 39.7611C78.7418 37.3817 78.1158 34.6891 78.1158 29.4293V1.12646H84.5652V30.4875C84.5652 35.4343 85.8802 37.438 89.1991 37.438C92.5177 37.438 93.7699 35.4343 93.7699 30.4875V1.12646H100.22Z" fill="#C8D8C0"/>
<path d="M127.739 20.1179V42.8917H124.421L123.231 39.3225C121.102 42.3281 118.785 43.5179 115.404 43.5179C111.584 43.5179 108.391 41.7021 106.763 38.6338C105.385 35.9412 104.947 33.2488 104.947 27.4879V15.9665C104.947 9.329 105.448 6.94964 107.389 4.38217C109.205 1.87766 112.398 0.5 116.218 0.5C123.419 0.5 127.551 5.25898 127.551 13.4617V15.1962H121.102V13.8374C121.102 9.07845 119.411 6.57394 116.155 6.57394C114.465 6.57394 113.024 7.32534 112.336 8.70275C111.584 10.0804 111.396 11.2702 111.396 14.714V27.4879C111.396 30.9319 111.584 32.7477 112.085 34.3132C112.774 36.2544 114.402 37.444 116.468 37.444C119.85 37.444 121.29 35.0019 121.29 29.1785V25.4404H115.967V20.1179H127.739Z" fill="#C8D8C0"/>
<path d="M139.887 24.9646V42.8919H133.438V1.12646H139.887V19.0099H149.092V1.12646H155.542V42.8857H149.092V24.9584H139.887V24.9646Z" fill="#C8D8C0"/>
<path d="M172.381 42.8915H165.929V7.08086H158.81V1.13232H179.556V7.08086H172.373V42.8915H172.381Z" fill="#C8D8C0"/>
<path d="M22.1487 73.2112V70.8191C22.1487 65.9977 20.4581 63.5556 17.2646 63.5556C15.5112 63.5556 14.1336 64.307 13.4449 65.622C12.6308 66.9996 12.4429 68.2519 12.4429 71.6332V85.5342C12.4429 88.7277 12.6308 90.3559 13.1319 91.7333C13.7579 93.3615 15.3861 94.4259 17.2646 94.4259C20.6459 94.4259 22.2739 91.7333 22.2739 86.2856V83.6119H28.786V86.6613C28.786 95.7409 24.8411 100.5 17.3271 100.5C13.1319 100.5 9.81301 98.8716 7.9972 95.866C6.43169 93.2988 5.99353 90.8567 5.99353 84.6577V72.9482C5.99353 66.3109 6.49438 63.994 8.4356 61.3641C10.2514 58.8593 13.3822 57.4817 17.2646 57.4817C24.4029 57.4817 28.5981 62.2407 28.5981 70.4437V73.2112H22.1487Z" fill="#C8D8C0"/>
<path d="M68.4103 99.8737H61.9606V64.063H54.8412V58.1143H75.5862V64.063H68.4103V99.8737Z" fill="#C8D8C0"/>
<path d="M110.364 93.9252H119.362V99.8737H103.914V58.1143H110.364V93.9252Z" fill="#C8D8C0"/>
<path d="M144.459 86.5986C144.459 91.2949 143.77 94.1127 142.079 96.4923C140.201 99.1222 137.07 100.5 133.063 100.5C129.055 100.5 125.924 99.1222 124.046 96.4923C122.355 94.1127 121.666 91.2949 121.666 86.5986V71.3829C121.666 66.6866 122.355 63.8686 124.046 61.4893C125.924 58.8594 129.055 57.4817 133.063 57.4817C137.07 57.4817 140.201 58.8594 142.079 61.4893C143.77 63.8686 144.459 66.6866 144.459 71.3829V86.5986ZM128.116 86.4735C128.116 89.7921 128.304 90.8567 128.93 92.1717C129.681 93.5491 131.247 94.4259 133.063 94.4259C134.879 94.4259 136.444 93.5491 137.195 92.1717C137.884 90.8567 138.009 89.8548 138.009 86.4735V71.5081C138.009 68.1268 137.884 67.1248 137.195 65.8098C136.444 64.4322 134.879 63.5556 133.063 63.5556C131.247 63.5556 129.681 64.4322 128.93 65.8098C128.304 67.0621 128.116 68.1892 128.116 71.5081V86.4735Z" fill="#C8D8C0"/>
<path d="M171.02 77.0998V99.8736H167.703L166.511 96.3044C164.383 99.31 162.066 100.5 158.685 100.5C154.865 100.5 151.672 98.6838 150.044 95.6155C148.666 92.9231 148.228 90.2305 148.228 84.4698V72.9482C148.228 66.3109 148.729 63.9313 150.67 61.3641C152.486 58.8593 155.68 57.4817 159.499 57.4817C166.7 57.4817 170.833 62.2407 170.833 70.4437V72.1781H164.383V70.8191C164.383 66.0604 162.693 63.5556 159.437 63.5556C157.746 63.5556 156.306 64.307 155.617 65.6847C154.865 67.0621 154.678 68.2519 154.678 71.6959V84.4698C154.678 87.9136 154.865 89.7296 155.366 91.2949C156.055 93.2361 157.683 94.4259 159.75 94.4259C163.131 94.4259 164.571 91.9839 164.571 86.1605V82.4221H159.249V77.0998H171.02Z" fill="#C8D8C0"/>
<path d="M49.2428 99.8737H55.8803L47.427 58.1143H38.598L30.5831 99.8737H36.9074L38.1096 93.1924H48.003L49.2428 99.8737ZM39.2367 86.9306L42.9813 66.1294L46.8383 86.9306H39.2367Z" fill="#C8D8C0"/>
<path d="M93.4006 99.8737H100.038L91.5848 58.1143H82.7557L74.7406 99.8737H81.0651L82.2673 93.1924H92.1608L93.4006 99.8737ZM83.3944 86.9306L87.1388 66.1294L90.9961 86.9306H83.3944Z" fill="#C8D8C0"/>
</svg>
