<svg width="218" height="57" viewBox="0 0 218 57" fill="none" xmlns="http://www.w3.org/2000/svg">
<path fill-rule="evenodd" clip-rule="evenodd" d="M119.25 33.8571V32.6428H136.072V33V33.5357V33.8928H132.072V55.7857H131.321L131.25 55.5C130.786 53.3214 128.536 52.5714 127.393 52.5714H127.214H126.965C125.072 52.6403 123.378 53.4384 121.628 54.2631L121.429 54.3571C121.25 54.4286 121.08 54.5 120.911 54.5714C120.741 54.6428 120.572 54.7143 120.393 54.7857C118.535 55.6786 116.536 56.4643 114.107 56.4643C101.107 56.4643 91.607 45.25 91.607 29.4286C91.607 10.0357 104.321 0.642857 113.572 0.642857C115.607 0.642857 116.929 1.03571 118.714 1.60714L119.464 1.82143C119.635 1.8783 119.813 1.93879 119.997 2.00175L120 2.00248C120.395 2.137 120.824 2.28281 121.285 2.42857L122 2.60714C122.5 2.71428 123.143 2.82143 123.893 2.85714C125.429 2.89285 127.214 2.5 127.964 0.714286L128.071 0.5H128.678H128.857V20.1428H128.678H128.036L127.964 19.8572C124.678 6.78572 120.643 1.92857 113.607 1.89286H113.536C107.75 1.89286 105.821 5.60714 104.786 7.60714C102.036 12.9285 101.464 25.0714 101.464 28.7857C101.464 39.1786 102.393 43.6429 104.143 48.2857C105.929 53.0357 109.036 55.3215 113.714 55.25C118.036 55.1785 123.572 53.3214 123.572 45V33.8571H119.25ZM216.856 36.1429V35.8215H217.892V55.4643H179.285V54.1786H183.999V3.32145H178.75H174.321V41.6786C174.428 48.3929 169.964 56.5 160.214 56.5C145.678 56.5 140.714 48.9286 140.714 39.1429V3.32145H135.714V2.60716V2.07145H154.464V2.60716V3.32145H149.642V43.6072C149.642 44.0358 149.963 54.6786 160.535 55.0715C163.428 55.1786 166.607 54.0357 168.856 51.8928C170.714 50.1429 172.857 46.7857 172.964 41.3215V3.32145H168.821V2.60716V2.07145H178.75H179.821H180.178H215.714V20.0715H214.857L214.785 19.7857C211.48 3.05704 203.83 3.21437 195.991 3.37558C195.696 3.38164 195.402 3.3877 195.107 3.39287C194.535 3.42859 193.607 3.42859 193.035 3.42859V27.5715H193.428H193.472C197.785 27.5716 203.039 27.5717 204.178 17.1072L204.214 16.7857H205.071V39.8214H204.214L204.178 39.5C203.346 28.7573 198.446 28.8082 194.11 28.8534L194.027 28.8542C193.923 28.8553 193.818 28.8563 193.714 28.8572H193V54.2143H193.428C193.584 54.2143 193.768 54.2164 193.978 54.2189C196.997 54.2535 205.368 54.3496 211.178 49.1072C214.714 45.9286 216.606 41.5715 216.856 36.1429ZM64.0365 0.785742C53.0721 0.785742 41.0365 11.75 41.0365 28.5C41.0365 45.2501 53.465 56.3572 64.0365 56.3572C74.6079 56.3572 87.0366 45.2501 87.0366 28.5C87.0008 11.75 75.0011 0.785742 64.0365 0.785742ZM76.8222 26.4286V26.7858V27.0358V27.25V27.5715V27.6786V28.0001V28.0715V28.4286V28.7143C76.8222 31.8214 76.5363 43.7858 73.3936 49.7501C71.6079 53.2143 68.1436 55.0358 63.965 55.0358C59.7865 55.0358 56.2865 53.2143 54.5364 49.7501C51.3936 43.7858 51.1436 31.8214 51.1436 28.7143V28.4286V28.0715V28.0001V27.6786V27.5715V27.25V27.0358V26.7858V26.4286V26.2857C51.2507 21.5 51.8579 12.5357 54.5364 7.28574C56.6793 2.9286 61.0364 2.00003 63.965 2.00003C66.9293 2.00003 71.2508 2.9286 73.3936 7.28574C76.0718 12.5357 76.6438 21.5 76.7864 26.2857C76.8222 26.3215 76.8222 26.3929 76.8222 26.4286ZM35.4643 2.07145H45.2857H45.6429V3.28573H41.2857H40.8214L25.1429 55.75H24.8572L5.14286 3.28573H4.64286H0V2.57144V2.07145H17.75V2.57144V3.28573H14H13.75L27.8215 42.2857L39.4643 3.28573H35.1072V2.07145H35.4643Z" fill="#C8D8C0"/>
</svg>
