<svg width="273" height="57" viewBox="0 0 273 57" fill="none" xmlns="http://www.w3.org/2000/svg">
<path d="M28.5193 55.314L33.2824 8.2174C33.5505 5.80249 34.0203 5.39945 34.8254 5.39945H35.2947V2.71648H27.5797V5.39945H28.0495C29.1227 5.39945 29.6593 6.1378 29.5253 8.2174L26.7746 36.3949L23.6218 8.2174C23.3528 6.00377 23.8894 5.39945 25.098 5.39945H25.2316V2.71648H14.4973V5.39945H15.0349C16.0413 5.39945 16.0413 5.80249 16.2426 8.2174L17.0477 15.3968L14.5646 38.2065L11.7476 8.2174C11.4118 5.80249 11.8816 5.39945 12.9548 5.39945H13.0884V2.71648H2.22009V5.39945H2.75716C3.8976 5.39945 3.96438 5.80249 4.23291 8.2174L9.0632 55.314H16.0408L18.7915 31.0944L21.609 55.314H28.5193ZM74.745 24.4535C74.745 21.1662 74.745 20.0253 76.8246 20.0253C78.2336 20.0253 78.2336 20.5619 78.2336 23.3126V51.4229C78.2336 52.4297 77.8978 52.6305 77.3612 52.6305H77.0264V55.3135H87.8274V52.6305H87.3576C86.6202 52.6305 86.4189 52.3615 86.4189 51.2883V21.8373C86.4189 17.0061 85.4125 15.1273 80.649 15.1273C77.8978 15.1273 75.8859 15.9997 74.611 19.0179C74.0735 16.335 72.665 15.1273 68.9756 15.1273C65.9563 15.1273 64.3461 16.0669 63.1389 19.0179V15.1273L53.8804 15.8656V18.5486H54.2825C54.8863 18.5486 55.3557 19.0179 55.3557 20.4951V51.0866C55.3557 52.2943 55.0876 52.6305 54.2825 52.6305H53.8804V55.3135H64.2121V52.6305H63.81C63.2729 52.6305 63.1389 52.4293 63.1389 51.6237V24.4535C63.1389 21.1662 63.0712 20.0253 65.1508 20.0253C66.5597 20.0253 66.5597 20.5619 66.5597 23.3126V51.4229C66.5597 52.4297 66.2244 52.6305 65.7546 52.6305H65.2853V55.3135H75.8859V52.6305H75.7514C75.014 52.6305 74.745 52.3615 74.745 51.2883V24.4535ZM150.222 55.314H163.171V52.631H162.298C161.158 52.631 160.823 52.1607 160.823 49.8131V29.5518H167.666V49.8126C167.666 52.1603 167.33 52.6305 166.257 52.6305H165.25V55.3135H178.131V52.6305H177.059C175.917 52.6305 175.717 52.1603 175.717 49.8126V8.2174C175.717 5.80249 175.917 5.39945 177.059 5.39945H178.131V2.71648H165.25V5.39945H166.257C167.33 5.39945 167.666 5.80249 167.666 8.2174V26.3976H160.823V8.2174C160.823 5.80249 161.158 5.39945 162.298 5.39945H163.171V2.71648H150.222V5.39945H151.363C152.437 5.39945 152.772 5.80249 152.772 8.2174V51.1538C152.772 52.2948 152.437 52.631 151.363 52.631H150.222V55.314ZM248.041 55.314H258.306V52.631H257.97C257.3 52.631 257.232 52.4297 257.232 51.6241V24.4535C257.232 21.1662 257.3 20.0253 259.379 20.0253C260.921 20.0253 260.921 20.5619 260.921 23.3126V51.4229C260.921 52.4297 260.654 52.6305 260.185 52.6305H259.715V55.3135H270.583V52.6305H270.114C269.376 52.6305 269.242 52.3615 269.242 51.2883V21.8373C269.242 17.0061 268.034 15.1273 263.337 15.1273C260.252 15.1273 258.507 16.0669 257.232 19.0179V1.91089L247.37 2.71648V5.39945H248.377C249.047 5.39945 249.45 5.80249 249.45 7.27871V51.0866C249.45 52.2943 249.248 52.6305 248.377 52.6305H248.041V55.314ZM43.0107 55.7833C51.599 55.7833 52.8063 48.6049 52.8063 35.4553C52.8063 22.2394 51.5313 15.1273 43.0107 15.1273C34.491 15.1273 33.2165 22.2394 33.2165 35.4553C33.2161 48.6049 34.4238 55.7833 43.0107 55.7833ZM108.022 55.314H118.354V52.631H117.883C117.281 52.631 117.281 52.4297 117.281 51.6241V24.4535C117.281 21.1662 117.281 20.0253 119.426 20.0253C120.903 20.0253 120.97 20.5619 120.97 23.3126V51.4229C120.97 52.4297 120.568 52.6305 120.165 52.6305H119.694V55.3135H130.564V52.6305H130.094C129.356 52.6305 129.156 52.3615 129.156 51.2883V21.8373C129.156 17.0061 128.015 15.1273 123.25 15.1273C120.233 15.1273 118.42 16.0669 117.281 19.0179V15.1273L107.351 15.8656V18.5486H108.424C109.029 18.5486 109.497 19.0179 109.497 20.4951V51.0866C109.497 52.2943 109.23 52.6305 108.424 52.6305H108.022V55.314H108.022ZM203.223 55.7833C206.779 55.7833 208.121 54.04 208.858 51.9594C209.529 55.0454 210.267 55.7833 214.293 55.7833C218.989 55.7833 219.593 52.9663 219.526 47.4645H217.312C217.312 51.4233 217.245 51.8254 216.506 51.8254C215.836 51.8254 215.836 51.4901 215.836 49.2755V23.1785C215.836 17.8784 214.092 15.1277 207.92 15.1277C203.022 15.1277 198.191 16.604 198.459 21.9036C198.594 24.3194 199.534 26.8684 202.083 26.7339C204.43 26.5999 205.504 25.3259 205.504 23.3794C205.504 22.0381 204.497 19.8235 202.888 18.6158C203.492 18.3478 204.43 18.0783 205.974 18.0783C207.719 18.0783 208.053 19.4205 208.053 21.9699V29.2824C199.131 32.3016 197.252 33.5093 197.252 44.7133C197.252 52.765 199.199 55.7833 203.223 55.7833ZM187.86 55.7833C194.501 55.7833 196.044 53.771 195.709 42.7687H192.958C192.958 51.4901 192.69 52.1607 189.604 52.1607C185.914 52.1607 185.914 50.5505 185.914 35.5907V34.3821H196.647C196.647 19.2879 194.971 15.1282 187.859 15.1282C181.419 15.1282 178.064 19.0871 178.064 35.7243C178.065 51.5569 180.614 55.851 187.86 55.7833ZM98.6957 55.7833C105.204 55.7833 107.015 53.771 106.746 42.7687H103.997C103.997 51.4901 103.595 52.1607 100.441 52.1607C96.4825 52.1607 96.6838 50.5505 96.6838 35.5907V34.3821H107.083C107.083 19.2879 105.674 15.1282 98.6961 15.1282C92.1898 15.1282 88.8348 19.0871 88.8348 35.7243C88.8343 51.5569 91.3832 55.851 98.6957 55.7833ZM221.004 55.314H231.738V52.631H230.933C230.261 52.631 229.993 52.2948 229.993 51.222V1.91089L219.997 2.71648V5.39945H221.138C221.808 5.39945 222.076 5.66752 222.076 6.74165V51.3561C222.076 52.362 222.009 52.631 221.54 52.631H221.003V55.314H221.004ZM142.64 55.7833C147.539 55.7833 150.089 52.5628 150.089 47.7335C150.089 36.3954 139.823 29.8204 139.823 21.7023C139.823 19.2197 140.696 18.4818 142.44 18.4818C144.989 18.4818 145.392 19.5555 145.861 23.3794L146.263 27.136H149.215V15.4626H146.868C146.733 16.9398 146.399 17.4759 146.263 17.2741C145.527 16.4022 143.781 15.1277 140.897 15.1277C136.603 15.1277 132.846 17.0733 132.846 23.4466C132.846 33.3757 143.044 40.9572 143.044 48.5381C143.044 51.8254 142.307 52.362 139.958 52.362C137.61 52.362 137.007 51.2893 136.538 46.3245L136.201 43.0363H133.115V55.314H135.798C136.001 53.9718 136.471 53.1004 136.872 53.5024C137.744 54.5093 138.683 55.7833 142.64 55.7833ZM233.75 46.9956C233.75 53.3684 234.69 55.7833 240.995 55.7833C245.424 55.7833 246.43 54.04 246.43 49.1424V42.4997H243.746V49.4778C243.746 51.8254 243.545 52.0935 242.674 52.0935C241.801 52.0935 241.6 51.8254 241.6 49.7458V18.4818H246.498V15.4626H241.667V5.39945H238.917C236.971 14.3231 235.295 15.4626 232.677 15.4626H231.94V18.4146H233.751L233.75 46.9956ZM43.0107 52.3615C41.1333 52.3615 41.1333 51.2888 41.1333 35.4553C41.1333 19.5555 41.1333 18.4818 43.0107 18.4818C44.8895 18.4818 44.8895 19.5555 44.8895 35.4553C44.8895 51.3561 44.8895 52.3615 43.0107 52.3615ZM131.504 17.141C138.212 12.1753 139.555 8.41868 137.34 4.99736C136.133 3.11905 133.382 1.91136 131.369 3.58839C128.953 5.60074 129.558 9.09024 134.053 11.1031C133.247 12.0417 131.369 13.8542 129.826 15.3972L131.504 17.141ZM206.444 51.0866C204.834 51.0866 204.834 49.4105 204.834 44.1104C204.834 34.4494 204.834 33.1744 208.053 31.4301V48.0011C208.053 50.4832 207.719 51.0866 206.444 51.0866ZM96.6833 31.5646C96.8174 19.0184 97.0191 18.415 98.7634 18.415C100.44 18.415 100.307 19.0866 100.307 31.5646H96.6833ZM185.915 31.5646C186.116 19.0184 186.25 18.415 187.995 18.415C189.739 18.415 189.47 19.0866 189.47 31.5646H185.915Z" fill="#C8D8C0"/>
</svg>
