<svg width="193" height="89" viewBox="0 0 193 89" fill="none" xmlns="http://www.w3.org/2000/svg">
<path fill-rule="evenodd" clip-rule="evenodd" d="M73.8906 0.5L65.4837 88.5H42.3617L37.0368 42.5389L31.8517 88.5H9.29225L0.603516 0.5H18.5394L22.6035 61.1751C23.3039 45.7618 25.1251 25.4422 27.6477 0.5H46.8454L50.7687 63.1362C51.7497 42.8186 53.4311 21.9395 55.673 0.5H73.8906Z" fill="#C8D8C0"/>
<path fill-rule="evenodd" clip-rule="evenodd" d="M146.757 0.5L138.349 88.5H115.508C113.407 75.4685 111.586 60.0552 109.904 42.5389L104.718 88.5H81.8779L73.7506 0.5H91.6865L95.6098 61.1751C96.1702 47.0205 97.7117 26.8439 100.514 0.5H119.432L123.636 63.1362C124.898 39.7366 126.719 18.9974 128.82 0.5H146.757ZM150.26 0.5V88.5H173.382L183.471 87.6609C185.572 87.0983 187.393 86.2592 188.796 84.5778C190.477 83.1761 191.457 81.0751 192.159 78.5525L193 62.4379V31.7492L192.299 14.9343C192.158 12.1309 190.897 9.60933 189.356 7.22659C187.675 4.98474 185.293 3.30335 182.069 2.18139L171.56 0.780749L150.26 0.5ZM171.56 15.9143L172.96 16.3349L174.362 18.9974L174.64 26.705V60.7565L173.66 71.5442L171.559 73.0867L168.755 73.3654V15.6335L171.56 15.9143Z" fill="#C8D8C0"/>
</svg>
